<?xml version="1.0" encoding="us-ascii" standalone="no"?><svg xmlns="http://www.w3.org/2000/svg" xmlns:xlink="http://www.w3.org/1999/xlink" contentStyleType="text/css" height="1102px" preserveAspectRatio="none" style="width:828px;height:1102px;background:#FFFFFF;" version="1.1" viewBox="0 0 828 1102" width="828px" zoomAndPan="magnify"><defs/><g><!--cluster MiniSocs--><g id="cluster_MiniSocs"><rect fill="none" height="1089" rx="2.5" ry="2.5" style="stroke:#181818;stroke-width:1.0;" width="287" x="535" y="7"/><text fill="#000000" font-family="sans-serif" font-size="14" font-weight="bold" lengthAdjust="spacing" textLength="69" x="644" y="21.9951">MiniSocs</text></g><g id="elem_Ajouter un utilisateur"><ellipse cx="678.6144" cy="387.9229" fill="#FFFFFF" rx="90.1144" ry="20.4229" style="stroke:#000000;stroke-width:0.5;"/><text fill="#000000" font-family="sans-serif" font-size="14" lengthAdjust="spacing" textLength="142" x="607.6144" y="390.7696">Ajouter un utilisateur</text></g><g id="elem_Lister les utilisateur"><ellipse cx="678.728" cy="62.0456" fill="#FFFFFF" rx="85.728" ry="19.5456" style="stroke:#000000;stroke-width:0.5;"/><text fill="#000000" font-family="sans-serif" font-size="14" lengthAdjust="spacing" textLength="132" x="612.728" y="64.8923">Lister les utilisateur</text></g><g id="elem_Bloquer un compte utilisateur"><ellipse cx="678.4293" cy="143.0859" fill="#FFFFFF" rx="118.4293" ry="26.0859" style="stroke:#000000;stroke-width:0.5;"/><text fill="#000000" font-family="sans-serif" font-size="14" lengthAdjust="spacing" textLength="204" x="576.4293" y="145.9325">Bloquer un compte utilisateur</text></g><g id="elem_Debloquer un compte utilisateur"><ellipse cx="678.3631" cy="231.8726" fill="#FFFFFF" rx="127.3631" ry="27.8726" style="stroke:#000000;stroke-width:0.5;"/><text fill="#000000" font-family="sans-serif" font-size="14" lengthAdjust="spacing" textLength="223" x="566.8631" y="234.7193">Debloquer un compte utilisateur</text></g><g id="elem_Retirer utilisateur"><ellipse cx="678.3735" cy="313.7747" fill="#FFFFFF" rx="79.3735" ry="18.2747" style="stroke:#000000;stroke-width:0.5;"/><text fill="#000000" font-family="sans-serif" font-size="14" lengthAdjust="spacing" textLength="117" x="617.9676" y="317.2248">Retirer utilisateur</text></g><g id="elem_D&#233;sactiver son compte"><ellipse cx="678.6626" cy="835.0325" fill="#FFFFFF" rx="98.1626" ry="22.0325" style="stroke:#000000;stroke-width:0.5;"/><text fill="#000000" font-family="sans-serif" font-size="14" lengthAdjust="spacing" textLength="160" x="598.6626" y="837.8792">D&#233;sactiver son compte</text></g><g id="elem_Cr&#233;er r&#233;seau social"><ellipse cx="678.6635" cy="912.1327" fill="#FFFFFF" rx="86.1635" ry="19.6327" style="stroke:#000000;stroke-width:0.5;"/><text fill="#000000" font-family="sans-serif" font-size="14" lengthAdjust="spacing" textLength="133" x="612.1635" y="914.9794">Cr&#233;er r&#233;seau social</text></g><g id="elem_Configurer compte"><ellipse cx="678.4263" cy="985.7853" fill="#FFFFFF" rx="84.4263" ry="19.2853" style="stroke:#000000;stroke-width:0.5;"/><text fill="#000000" font-family="sans-serif" font-size="14" lengthAdjust="spacing" textLength="129" x="613.805" y="988.6739">Configurer compte</text></g><g id="elem_Poster message"><ellipse cx="678.2532" cy="686.9506" fill="#FFFFFF" rx="77.7532" ry="17.9506" style="stroke:#000000;stroke-width:0.5;"/><text fill="#000000" font-family="sans-serif" font-size="14" lengthAdjust="spacing" textLength="113" x="619.1994" y="690.5809">Poster message</text></g><g id="elem_Cacher message"><ellipse cx="678.3735" cy="758.7747" fill="#FFFFFF" rx="79.3735" ry="18.2747" style="stroke:#000000;stroke-width:0.5;"/><text fill="#000000" font-family="sans-serif" font-size="14" lengthAdjust="spacing" textLength="117" x="617.9676" y="762.2248">Cacher message</text></g><g id="elem_Ajouter membre"><ellipse cx="678.4563" cy="461.7913" fill="#FFFFFF" rx="76.9563" ry="17.7913" style="stroke:#000000;stroke-width:0.5;"/><text fill="#000000" font-family="sans-serif" font-size="14" lengthAdjust="spacing" textLength="111" x="620.0675" y="465.5101">Ajouter membre</text></g><g id="elem_Promouvoir membre"><ellipse cx="678.7318" cy="535.2464" fill="#FFFFFF" rx="89.2318" ry="20.2464" style="stroke:#000000;stroke-width:0.5;"/><text fill="#000000" font-family="sans-serif" font-size="14" lengthAdjust="spacing" textLength="140" x="608.7318" y="538.093">Promouvoir membre</text></g><g id="elem_Mod&#233;rer les messages"><ellipse cx="678.2599" cy="611.852" fill="#FFFFFF" rx="97.2599" ry="21.852" style="stroke:#000000;stroke-width:0.5;"/><text fill="#000000" font-family="sans-serif" font-size="14" lengthAdjust="spacing" textLength="158" x="599.2599" y="614.6987">Mod&#233;rer les messages</text></g><g id="elem_Activer son compte"><ellipse cx="678.6635" cy="1060.1327" fill="#FFFFFF" rx="86.1635" ry="19.6327" style="stroke:#000000;stroke-width:0.5;"/><text fill="#000000" font-family="sans-serif" font-size="14" lengthAdjust="spacing" textLength="133" x="612.1635" y="1062.9794">Activer son compte</text></g><!--entity Administrateur--><g id="elem_Administrateur"><ellipse cx="441" cy="243.5" fill="#F1F1F1" rx="8" ry="8" style="stroke:#181818;stroke-width:0.5;"/><path d="M441,251.5 L441,278.5 M428,259.5 L454,259.5 M441,278.5 L428,293.5 M441,278.5 L454,293.5 " fill="none" style="stroke:#181818;stroke-width:0.5;"/><text fill="#000000" font-family="sans-serif" font-size="14" lengthAdjust="spacing" textLength="100" x="391" y="307.9951">Administrateur</text></g><!--entity Utilisateur--><g id="elem_Utilisateur"><ellipse cx="40" cy="882.5" fill="#F1F1F1" rx="8" ry="8" style="stroke:#181818;stroke-width:0.5;"/><path d="M40,890.5 L40,917.5 M27,898.5 L53,898.5 M40,917.5 L27,932.5 M40,917.5 L53,932.5 " fill="none" style="stroke:#181818;stroke-width:0.5;"/><text fill="#000000" font-family="sans-serif" font-size="14" lengthAdjust="spacing" textLength="68" x="6" y="946.9951">Utilisateur</text></g><!--entity Membre--><g id="elem_Membre"><ellipse cx="162.5" cy="687.5" fill="#F1F1F1" rx="8" ry="8" style="stroke:#181818;stroke-width:0.5;"/><path d="M162.5,695.5 L162.5,722.5 M149.5,703.5 L175.5,703.5 M162.5,722.5 L149.5,737.5 M162.5,722.5 L175.5,737.5 " fill="none" style="stroke:#181818;stroke-width:0.5;"/><text fill="#000000" font-family="sans-serif" font-size="14" lengthAdjust="spacing" textLength="57" x="134" y="751.9951">Membre</text></g><!--entity Mod?rateur--><g id="elem_Mod&#233;rateur"><ellipse cx="291" cy="505.5" fill="#F1F1F1" rx="8" ry="8" style="stroke:#181818;stroke-width:0.5;"/><path d="M291,513.5 L291,540.5 M278,521.5 L304,521.5 M291,540.5 L278,555.5 M291,540.5 L304,555.5 " fill="none" style="stroke:#181818;stroke-width:0.5;"/><text fill="#000000" font-family="sans-serif" font-size="14" lengthAdjust="spacing" textLength="80" x="251" y="569.9951">Mod&#233;rateur</text></g><!--reverse link Mod?rateur to Administrateur--><g id="link_Mod&#233;rateur_Administrateur"><path d="M322.3736,481.2279 C350.4336,431.5579 390.38,360.84 418.45,311.14 " fill="none" id="Mod&#233;rateur-backto-Administrateur" style="stroke:#000000;stroke-width:1.0;"/><polygon fill="none" points="313.52,496.9,327.5976,484.1791,317.1496,478.2767,313.52,496.9" style="stroke:#000000;stroke-width:1.0;"/></g><!--reverse link Utilisateur to Membre--><g id="link_Utilisateur_Membre"><path d="M73.9807,858.6268 C95.1407,824.3768 116.63,789.62 137.83,755.3 " fill="none" id="Utilisateur-backto-Membre" style="stroke:#000000;stroke-width:1.0;"/><polygon fill="none" points="64.52,873.94,79.0851,861.7803,68.8763,855.4732,64.52,873.94" style="stroke:#000000;stroke-width:1.0;"/></g><!--reverse link Membre to Mod?rateur--><g id="link_Membre_Mod&#233;rateur"><path d="M200.2915,664.0684 C221.8815,632.9984 241.94,604.15 263.52,573.1 " fill="none" id="Membre-backto-Mod&#233;rateur" style="stroke:#000000;stroke-width:1.0;"/><polygon fill="none" points="190.02,678.85,205.2187,667.4922,195.3643,660.6445,190.02,678.85" style="stroke:#000000;stroke-width:1.0;"/></g><!--link Administrateur to Ajouter un utilisateur--><g id="link_Administrateur_Ajouter un utilisateur"><path d="M476.19,311.06 C490.62,325.12 508.39,340.04 527,350 C550.28,362.47 577.79,370.96 602.88,376.69 " fill="none" id="Administrateur-Ajouter un utilisateur" style="stroke:#000000;stroke-width:1.0;"/></g><!--link Administrateur to Lister les utilisateur--><g id="link_Administrateur_Lister les utilisateur"><path d="M450.51,234.78 C461.41,194.91 484.21,133.51 527,99 C546.9,82.95 572.75,73.72 597.4,68.45 " fill="none" id="Administrateur-Lister les utilisateur" style="stroke:#000000;stroke-width:1.0;"/></g><!--link Administrateur to Bloquer un compte utilisateur--><g id="link_Administrateur_Bloquer un compte utilisateur"><path d="M471.58,234.66 C486.54,217.58 505.96,198.54 527,186 C545.79,174.8 567.64,166.39 588.78,160.12 " fill="none" id="Administrateur-Bloquer un compte utilisateur" style="stroke:#000000;stroke-width:1.0;"/></g><!--link Administrateur to Debloquer un compte utilisateur--><g id="link_Administrateur_Debloquer un compte utilisateur"><path d="M491.08,264.45 C516.29,260.07 547.95,254.55 577.99,249.32 " fill="none" id="Administrateur-Debloquer un compte utilisateur" style="stroke:#000000;stroke-width:1.0;"/></g><!--link Administrateur to Retirer utilisateur--><g id="link_Administrateur_Retirer utilisateur"><path d="M491.08,281.55 C526.8,287.76 575.49,296.24 614.15,302.97 " fill="none" id="Administrateur-Retirer utilisateur" style="stroke:#000000;stroke-width:1.0;"/></g><!--link Utilisateur to D?sactiver son compte--><g id="link_Utilisateur_D&#233;sactiver son compte"><path d="M74.24,901.15 C91.82,895.8 113.89,889.72 134,886 C289.16,857.27 472.39,844.34 581.55,838.81 " fill="none" id="Utilisateur-D&#233;sactiver son compte" style="stroke:#000000;stroke-width:1.0;"/></g><!--link Utilisateur to Cr?er r?seau social--><g id="link_Utilisateur_Cr&#233;er r&#233;seau social"><path d="M74.32,912 C170.37,912 449.97,912 592.23,912 " fill="none" id="Utilisateur-Cr&#233;er r&#233;seau social" style="stroke:#000000;stroke-width:1.0;"/></g><!--link Utilisateur to Configurer compte--><g id="link_Utilisateur_Configurer compte"><path d="M74.32,915.87 C172.8,927.32 464.24,961.21 602.75,977.31 " fill="none" id="Utilisateur-Configurer compte" style="stroke:#000000;stroke-width:1.0;"/></g><!--link Membre to Poster message--><g id="link_Membre_Poster message"><path d="M191.13,715.39 C267.98,710.9 486.15,698.17 602.41,691.38 " fill="none" id="Membre-Poster message" style="stroke:#000000;stroke-width:1.0;"/></g><!--link Membre to Cacher message--><g id="link_Membre_Cacher message"><path d="M191.13,719.26 C268.18,725.55 487.33,743.46 603.35,752.94 " fill="none" id="Membre-Cacher message" style="stroke:#000000;stroke-width:1.0;"/></g><!--link Mod?rateur to Ajouter membre--><g id="link_Mod&#233;rateur_Ajouter membre"><path d="M331.3,523.77 C349.39,518.83 371.19,513.22 391,509 C466.18,493 553.46,479.38 611.74,470.99 " fill="none" id="Mod&#233;rateur-Ajouter membre" style="stroke:#000000;stroke-width:1.0;"/></g><!--link Mod?rateur to Promouvoir membre--><g id="link_Mod&#233;rateur_Promouvoir membre"><path d="M331.09,535 C391.19,535 507.86,535 589.12,535 " fill="none" id="Mod&#233;rateur-Promouvoir membre" style="stroke:#000000;stroke-width:1.0;"/></g><!--link Mod?rateur to Mod?rer les messages--><g id="link_Mod&#233;rateur_Mod&#233;rer les messages"><path d="M331.09,542.81 C395.21,555.62 523.72,581.28 604.91,597.5 " fill="none" id="Mod&#233;rateur-Mod&#233;rer les messages" style="stroke:#000000;stroke-width:1.0;"/></g><!--link Utilisateur to Activer son compte--><g id="link_Utilisateur_Activer son compte"><path d="M74.03,921.68 C91.75,926.77 114,932.96 134,938 C307.02,981.57 512.95,1025.71 614.48,1046.96 " fill="none" id="Utilisateur-Activer son compte" style="stroke:#000000;stroke-width:1.0;"/></g><!--SRC=[bPDBRjim48RtFCKW6pcBNC0m0lW1j8iOC5e4MK_8YSI6vBXyf0ZItgS-Xo_MiIJNjY8qg1QIEFFDpvypKhMoM4Vqdi0GQ4nWgfAjimcpvG2JZSEGxzTtrvLIrPB3awrBx7AwmPW9f7pRsE-5AfMURTYYo4599684Rsg1-hcEN89PikC83utDf1OS3SKkid22g7cC_ECYe3F7GVLi1f-Bnm2tj_29dL6_b7Bqb24pH5it6OoDf0_snEvglzCEUxU64g3EL6A2QQNme0vpussmAGiZYJvutv__55cJVunqNB3Px_g2itUO_Rov6GgUINNvNgbxzA4plJ7JxuTYC2Hm1EarvVrlBuq_d1b3BR6hjUp_bNMwajvFB-rCGRQRpBznoHIX12WdUzVZy9siXNNYusDuuLW-WrPPiz_Aj_5HpMH5Z_zVz8MoJ3aEmBDUJq6kWoDfPfAfsHUX4nzt6C8YkOpxdJ1oJuH5M6tHZN7z7o3iNwrkc6rwmssxFAM4zI2tHDrSvaw3Ru7ZO7nRCm9i8dikBsp_mNJhVcJzNcda8FEHhlm1]--></g></svg>